<svg width="45" height="45" viewBox="0 0 45 45" fill="none" xmlns="http://www.w3.org/2000/svg">
<g clip-path="url(#clip0)">
<path d="M44.3319 9.99756C43.7912 9.3556 42.9996 8.98734 42.1602 8.98734H40.1454C39.2509 7.41276 37.5782 6.42381 35.7352 6.42381H35.3185V3.35816C35.3185 2.87274 34.925 2.47925 34.4396 2.47925C31.1635 2.47925 28.4981 5.14464 28.4981 8.42079V11.1673C28.4981 13.0789 27.4428 14.8109 25.744 15.6875L22.8743 17.1682C22.443 17.3908 22.2737 17.9209 22.4962 18.3522C22.6522 18.6547 22.9595 18.8284 23.278 18.8284C23.4137 18.8284 23.5515 18.7969 23.6803 18.7304L26.55 17.2496C28.8359 16.0701 30.2559 13.7395 30.2559 11.1674V8.4207C30.2559 6.41528 31.6745 4.7348 33.5607 4.32989V7.30272C33.5607 7.78815 33.9543 8.18164 34.4396 8.18164H35.7352C37.0715 8.18164 38.2709 8.97714 38.7908 10.2082C38.9282 10.5337 39.2471 10.7452 39.6004 10.7452H42.1602C42.4799 10.7452 42.7815 10.8855 42.9875 11.1301C43.1935 11.3747 43.2805 11.6957 43.2262 12.0109L42.9009 13.8977C42.6944 15.0946 41.6633 15.9631 40.4489 15.9631H36.536C36.5268 15.9631 36.5179 15.9641 36.5087 15.9645C36.4996 15.9642 36.4907 15.9631 36.4815 15.9631C35.9962 15.9631 35.6026 16.3566 35.6026 16.842V21.1395C35.6026 24.2483 35.0025 27.2795 33.819 30.1489C33.7461 30.3257 33.7329 30.5214 33.7811 30.7064L35.943 38.9742C35.9808 39.1186 36.0546 39.2509 36.1577 39.3589L36.9302 40.1678C37.0698 40.3141 37.0335 40.4698 36.9993 40.5495C36.9651 40.6293 36.8776 40.7633 36.6754 40.7633H33.7474L29.9702 30.9764V26.912C29.9702 26.4266 29.5766 26.0331 29.0912 26.0331C28.6058 26.0331 28.2123 26.4266 28.2123 26.912V31.1402C28.2123 31.2484 28.2323 31.3557 28.2713 31.4567L31.8632 40.7631H28.7714C28.3472 38.0135 25.9648 35.9016 23.0983 35.9016H22.1063L21.7139 33.5735C21.2946 31.0854 19.4287 29.1394 16.9604 28.6159L15.2978 28.2633C14.8234 28.1627 14.3564 28.4659 14.2557 28.9407C14.155 29.4156 14.4583 29.8821 14.9332 29.9828L16.5957 30.3354C18.3533 30.7082 19.6819 32.0939 19.9804 33.8656L20.3236 35.9015H14.9083C14.423 35.9015 14.0294 36.295 14.0294 36.7804C14.0294 37.2658 14.423 37.6593 14.9083 37.6593H23.0983C24.9924 37.6593 26.5819 38.9884 26.9831 40.763H14.7647C10.3675 40.763 6.79005 37.1856 6.79005 32.7884C6.79005 29.4926 8.60949 26.5064 11.5384 24.9952L16.6526 22.3563C17.0839 22.1338 17.2532 21.6036 17.0306 21.1722C16.8081 20.7409 16.2777 20.5715 15.8465 20.7942L10.7323 23.4331C9.32923 24.157 8.13909 25.1636 7.21439 26.3625C7.11727 25.9018 7.06787 25.4293 7.06787 24.9474C7.06787 22.4933 8.39758 20.2187 10.538 19.0113C11.1178 18.6842 11.3929 18.029 11.2227 17.3807C11.0435 16.6982 10.4304 16.2208 9.7294 16.2153C9.72536 16.2153 9.72149 16.2147 9.71745 16.2147C9.7149 16.2147 9.71226 16.2147 9.70962 16.2148C9.70857 16.2148 9.7076 16.215 9.70655 16.215C4.45865 16.2208 0.106091 20.543 0.0018521 25.8551C-0.0709219 29.5617 1.97132 33.0152 5.23007 34.7464C6.13878 39.1777 10.0687 42.5209 14.7647 42.5209H36.6755C37.5343 42.5209 38.2776 42.0303 38.6154 41.2407C38.9533 40.4511 38.7946 39.5747 38.2014 38.9535L37.586 38.3092L35.5556 30.5439C36.7533 27.5426 37.3603 24.3801 37.3603 21.1394V17.7208H40.4489C42.5212 17.7208 44.281 16.2385 44.6331 14.1963L44.9584 12.3094C45.1011 11.4821 44.8727 10.6395 44.3319 9.99756ZM1.75941 25.8896C1.83913 21.8276 4.9351 18.4704 8.83133 18.0233C6.63773 19.6253 5.31022 22.1966 5.31022 24.9474C5.31022 26.132 5.54595 27.2727 6.01063 28.345C5.40901 29.6406 5.06931 31.0672 5.03635 32.5508C2.95992 31.0096 1.70765 28.5277 1.75941 25.8896Z" fill="#0563A1"/>
<path d="M36.6251 11.7889C36.7885 11.6254 36.8826 11.3986 36.8826 11.1675C36.8826 10.9363 36.7886 10.7096 36.6251 10.5461C36.4616 10.3826 36.2348 10.2886 36.0037 10.2886C35.7717 10.2886 35.5458 10.3826 35.3823 10.5461C35.2181 10.7096 35.1248 10.9363 35.1248 11.1675C35.1248 11.3986 35.2181 11.6254 35.3823 11.7889C35.5458 11.9523 35.7726 12.0464 36.0037 12.0464C36.2348 12.0464 36.4608 11.9523 36.6251 11.7889Z" fill="#0563A1"/>
<path d="M19.7631 20.6412C19.9943 20.6412 20.2201 20.548 20.3844 20.3846C20.5479 20.2202 20.642 19.9943 20.642 19.7632C20.642 19.532 20.548 19.3053 20.3844 19.1409C20.221 18.9774 19.9943 18.8843 19.7631 18.8843C19.531 18.8843 19.3043 18.9774 19.1409 19.1409C18.9774 19.3044 18.8842 19.5312 18.8842 19.7632C18.8842 19.9943 18.9774 20.2211 19.1409 20.3846C19.3044 20.548 19.5311 20.6412 19.7631 20.6412Z" fill="#0563A1"/>
</g>
<defs>
<clipPath id="clip0">
<rect width="45" height="45" fill="white"/>
</clipPath>
</defs>
</svg>
