<svg width="150" height="40" viewBox="0 0 150 40" fill="none" xmlns="http://www.w3.org/2000/svg">
<path d="M143.333 0H6.66667C2.98477 0 0 2.98477 0 6.66667V33.3333C0 37.0152 2.98477 40 6.66667 40H143.333C147.015 40 150 37.0152 150 33.3333V6.66667C150 2.98477 147.015 0 143.333 0Z" fill="#FCC90F"/>
<path d="M43.4015 19.3818C43.3767 16.618 45.6645 15.2734 45.7692 15.2108C44.4734 13.3217 42.4651 13.0636 41.7593 13.043C40.0726 12.8655 38.4364 14.0523 37.5772 14.0523C36.7008 14.0523 35.3777 13.0602 33.9516 13.0893C32.1165 13.1176 30.3997 14.1801 29.4582 15.8299C27.515 19.194 28.9642 24.1377 30.8259 26.8569C31.7572 28.1886 32.8453 29.6756 34.2698 29.6233C35.6632 29.5658 36.1838 28.7348 37.8653 28.7348C39.5315 28.7348 40.0203 29.6233 41.4729 29.5898C42.9684 29.5658 43.91 28.2521 44.8087 26.9083C45.8849 25.3819 46.3171 23.8787 46.3343 23.8015C46.2991 23.7895 43.4298 22.6944 43.4015 19.3818Z" fill="#00568E"/>
<path d="M40.6575 11.2543C41.407 10.3169 41.9198 9.04184 41.7774 7.74781C40.6927 7.79584 39.336 8.49818 38.5548 9.41484C37.8637 10.2226 37.2462 11.5467 37.4057 12.7918C38.6243 12.8827 39.8754 12.1769 40.6575 11.2543Z" fill="#00568E"/>
<path d="M63.5676 29.432H61.6202L60.5534 26.0799H56.8455L55.8293 29.432H53.9333L57.6069 18.02H59.876L63.5676 29.432ZM60.2318 24.6736L59.2671 21.6937C59.1651 21.3893 58.9738 20.6723 58.6917 19.5438H58.6574C58.5451 20.0292 58.3642 20.7461 58.1155 21.6937L57.1679 24.6736H60.2318Z" fill="#00568E"/>
<path d="M73.0146 25.2165C73.0146 26.616 72.6364 27.7221 71.8801 28.5342C71.2027 29.2571 70.3614 29.6181 69.3572 29.6181C68.2733 29.6181 67.4947 29.2288 67.0205 28.4502H66.9862V32.785H65.158V23.9121C65.158 23.0324 65.1348 22.1294 65.0902 21.2032H66.6981L66.8002 22.5076H66.8344C67.4442 21.5248 68.3694 21.0343 69.6111 21.0343C70.5818 21.0343 71.3922 21.4177 72.0405 22.1852C72.6905 22.9535 73.0146 23.9637 73.0146 25.2165ZM71.1521 25.2834C71.1521 24.4824 70.972 23.8221 70.6101 23.3025C70.2148 22.7606 69.684 22.4896 69.0186 22.4896C68.5675 22.4896 68.1576 22.6405 67.7914 22.9381C67.4244 23.2381 67.1843 23.6301 67.072 24.1154C67.0153 24.3418 66.9871 24.5271 66.9871 24.6728V26.0448C66.9871 26.6434 67.1706 27.1485 67.5376 27.561C67.9047 27.9734 68.3814 28.1792 68.9679 28.1792C69.6566 28.1792 70.1925 27.9134 70.5758 27.3835C70.96 26.8526 71.1521 26.1529 71.1521 25.2834Z" fill="#00568E"/>
<path d="M82.4794 25.2165C82.4794 26.616 82.1013 27.7221 81.3441 28.5342C80.6674 29.2571 79.8263 29.6181 78.8221 29.6181C77.7382 29.6181 76.9595 29.2288 76.4862 28.4502H76.4518V32.785H74.6236V23.9121C74.6236 23.0324 74.6005 22.1294 74.5558 21.2032H76.1638L76.2658 22.5076H76.3001C76.9089 21.5248 77.8342 21.0343 79.0768 21.0343C80.0466 21.0343 80.857 21.4177 81.507 22.1852C82.1544 22.9535 82.4794 23.9637 82.4794 25.2165ZM80.6168 25.2834C80.6168 24.4824 80.4359 23.8221 80.0741 23.3025C79.6788 22.7606 79.1497 22.4896 78.4833 22.4896C78.0314 22.4896 77.6224 22.6405 77.2553 22.9381C76.8883 23.2381 76.6491 23.6301 76.5368 24.1154C76.481 24.3418 76.4518 24.5271 76.4518 24.6728V26.0448C76.4518 26.6434 76.6353 27.1485 77.0007 27.561C77.3677 27.9726 77.8445 28.1792 78.4328 28.1792C79.1213 28.1792 79.6573 27.9134 80.0406 27.3835C80.4248 26.8526 80.6168 26.1529 80.6168 25.2834Z" fill="#00568E"/>
<path d="M93.0617 26.2317C93.0617 27.2024 92.7242 27.9922 92.0475 28.6018C91.3042 29.2682 90.2692 29.6009 88.9392 29.6009C87.7117 29.6009 86.7267 29.3642 85.9817 28.89L86.405 27.3662C87.2083 27.8515 88.0883 28.0951 89.0483 28.0951C89.7367 28.0951 90.2725 27.939 90.6575 27.6286C91.0408 27.3182 91.2325 26.9014 91.2325 26.3817C91.2325 25.9187 91.075 25.5285 90.7583 25.2121C90.4433 24.8957 89.9175 24.6015 89.1842 24.3297C87.1858 23.5845 86.1875 22.4928 86.1875 21.0573C86.1875 20.1192 86.5375 19.35 87.2383 18.7515C87.9358 18.1521 88.8675 17.8527 90.0317 17.8527C91.07 17.8527 91.9333 18.0337 92.6217 18.3947L92.1642 19.8851C91.5217 19.5352 90.7942 19.3603 89.98 19.3603C89.3375 19.3603 88.835 19.5189 88.475 19.8345C88.17 20.1167 88.0175 20.4605 88.0175 20.8678C88.0175 21.3189 88.1917 21.6919 88.5417 21.9852C88.8458 22.2562 89.3992 22.5494 90.2017 22.8659C91.1833 23.2612 91.905 23.7234 92.3683 24.2533C92.8308 24.7816 93.0617 25.4427 93.0617 26.2317Z" fill="#00568E"/>
<path d="M99.1058 22.5752H97.0908V26.5704C97.0908 27.5866 97.4458 28.0942 98.1575 28.0942C98.4842 28.0942 98.755 28.0659 98.9692 28.0093L99.02 29.3977C98.66 29.5323 98.1858 29.6001 97.5983 29.6001C96.8767 29.6001 96.3125 29.3797 95.905 28.9397C95.4992 28.499 95.295 27.7598 95.295 26.7213V22.5735H94.0942V21.2015H95.295V19.6947L97.0908 19.1528V21.2015H99.1058V22.5752Z" fill="#00568E"/>
<path d="M108.198 25.2499C108.198 26.5148 107.837 27.5533 107.114 28.3653C106.357 29.2014 105.352 29.6182 104.099 29.6182C102.892 29.6182 101.931 29.2177 101.214 28.4168C100.497 27.6158 100.138 26.6048 100.138 25.3863C100.138 24.1111 100.508 23.0667 101.248 22.2546C101.986 21.4416 102.982 21.0352 104.235 21.0352C105.442 21.0352 106.414 21.4356 107.147 22.2374C107.848 23.0152 108.198 24.0193 108.198 25.2499ZM106.302 25.3091C106.302 24.5502 106.139 23.8993 105.811 23.3565C105.427 22.6996 104.88 22.372 104.17 22.372C103.435 22.372 102.877 22.7005 102.493 23.3565C102.165 23.9002 102.003 24.5613 102.003 25.3433C102.003 26.1023 102.165 26.7532 102.493 27.2951C102.888 27.952 103.441 28.2795 104.153 28.2795C104.852 28.2795 105.399 27.9451 105.795 27.2779C106.132 26.7248 106.302 26.0671 106.302 25.3091Z" fill="#00568E"/>
<path d="M114.141 22.8112C113.96 22.7777 113.767 22.7605 113.565 22.7605C112.922 22.7605 112.424 23.0032 112.074 23.4894C111.77 23.9181 111.617 24.4602 111.617 25.1144V29.4321H109.79L109.807 23.7947C109.807 22.8463 109.784 21.9827 109.738 21.2042H111.331L111.398 22.7786H111.448C111.641 22.2374 111.946 21.8018 112.363 21.4751C112.77 21.181 113.21 21.0343 113.684 21.0343C113.853 21.0343 114.005 21.0463 114.141 21.0677V22.8112Z" fill="#00568E"/>
<path d="M122.318 24.9283C122.318 25.2559 122.296 25.532 122.251 25.7576H116.766C116.788 26.5705 117.053 27.1922 117.562 27.621C118.024 28.0043 118.622 28.1963 119.356 28.1963C120.168 28.1963 120.908 28.0669 121.575 27.8071L121.862 29.0762C121.082 29.4158 120.163 29.5847 119.103 29.5847C117.827 29.5847 116.825 29.2091 116.096 28.4588C115.369 27.7084 115.004 26.7008 115.004 25.4368C115.004 24.196 115.343 23.1627 116.022 22.3386C116.732 21.4588 117.691 21.0189 118.898 21.0189C120.084 21.0189 120.983 21.4588 121.592 22.3386C122.075 23.0375 122.318 23.9019 122.318 24.9283ZM120.574 24.4542C120.586 23.9122 120.467 23.444 120.219 23.0487C119.903 22.5402 119.417 22.2863 118.763 22.2863C118.164 22.2863 117.678 22.5342 117.307 23.0315C117.003 23.4268 116.822 23.901 116.766 24.4533H120.574V24.4542Z" fill="#00568E"/>
<path d="M54.7292 14.1666V9.16413H56.6117C57.4417 9.16413 58.0542 9.37413 58.4492 9.79413C58.8492 10.2141 59.0492 10.8366 59.0492 11.6616C59.0492 12.4866 58.8492 13.1116 58.4492 13.5366C58.0542 13.9566 57.4417 14.1666 56.6117 14.1666H54.7292ZM55.7492 13.3491H56.4992C57.0042 13.3491 57.3817 13.2141 57.6317 12.9441C57.8817 12.6741 58.0067 12.2466 58.0067 11.6616C58.0067 11.0766 57.8817 10.6491 57.6317 10.3791C57.3817 10.1091 57.0042 9.97413 56.4992 9.97413H55.7492V13.3491Z" fill="#00568E"/>
<path d="M62.1558 14.2566C61.6608 14.2566 61.2333 14.1641 60.8733 13.9791C60.5183 13.7891 60.2458 13.5041 60.0558 13.1241C59.8658 12.7391 59.7708 12.2541 59.7708 11.6691C59.7708 10.8141 59.9758 10.1691 60.3858 9.73413C60.8008 9.29413 61.3908 9.07413 62.1558 9.07413C62.6508 9.07413 63.0758 9.16913 63.4308 9.35913C63.7908 9.54413 64.0658 9.82913 64.2558 10.2141C64.4458 10.5941 64.5408 11.0766 64.5408 11.6616C64.5408 12.5166 64.3333 13.1641 63.9183 13.6041C63.5083 14.0391 62.9208 14.2566 62.1558 14.2566ZM62.1558 13.4016C62.4508 13.4016 62.6958 13.3441 62.8908 13.2291C63.0908 13.1141 63.2408 12.9291 63.3408 12.6741C63.4408 12.4141 63.4908 12.0766 63.4908 11.6616C63.4908 11.2416 63.4408 10.9066 63.3408 10.6566C63.2408 10.4016 63.0908 10.2166 62.8908 10.1016C62.6958 9.98663 62.4508 9.92913 62.1558 9.92913C61.8608 9.92913 61.6133 9.98913 61.4133 10.1091C61.2183 10.2241 61.0708 10.4091 60.9708 10.6641C60.8708 10.9141 60.8208 11.2491 60.8208 11.6691C60.8208 12.0891 60.8708 12.4266 60.9708 12.6816C61.0708 12.9316 61.2183 13.1141 61.4133 13.2291C61.6133 13.3441 61.8608 13.4016 62.1558 13.4016Z" fill="#00568E"/>
<path d="M66.3123 14.1666L64.8498 9.16413H65.9598L66.9948 13.2366H66.8073L67.9998 9.16413H68.8248L70.0473 13.2891H69.8298L70.8648 9.16413H71.9748L70.5123 14.1666H69.4998L68.3148 10.3266H68.5248L67.3248 14.1666H66.3123Z" fill="#00568E"/>
<path d="M72.7248 14.1666V9.16413H73.6398L76.3698 12.8916L76.0773 13.4916V9.16413H77.0298V14.1666H76.1973L73.4073 10.4166L73.6773 9.95913V14.1666H72.7248Z" fill="#00568E"/>
<path d="M78.152 14.1666V9.16413H79.1795V13.3341H81.4595V14.1666H78.152Z" fill="#00568E"/>
<path d="M84.4288 14.2566C83.9338 14.2566 83.5063 14.1641 83.1463 13.9791C82.7913 13.7891 82.5188 13.5041 82.3288 13.1241C82.1388 12.7391 82.0438 12.2541 82.0438 11.6691C82.0438 10.8141 82.2488 10.1691 82.6588 9.73413C83.0738 9.29413 83.6638 9.07413 84.4288 9.07413C84.9238 9.07413 85.3488 9.16913 85.7038 9.35913C86.0638 9.54413 86.3388 9.82913 86.5288 10.2141C86.7188 10.5941 86.8138 11.0766 86.8138 11.6616C86.8138 12.5166 86.6063 13.1641 86.1913 13.6041C85.7813 14.0391 85.1938 14.2566 84.4288 14.2566ZM84.4288 13.4016C84.7238 13.4016 84.9688 13.3441 85.1638 13.2291C85.3638 13.1141 85.5138 12.9291 85.6138 12.6741C85.7138 12.4141 85.7638 12.0766 85.7638 11.6616C85.7638 11.2416 85.7138 10.9066 85.6138 10.6566C85.5138 10.4016 85.3638 10.2166 85.1638 10.1016C84.9688 9.98663 84.7238 9.92913 84.4288 9.92913C84.1338 9.92913 83.8863 9.98913 83.6863 10.1091C83.4913 10.2241 83.3438 10.4091 83.2438 10.6641C83.1438 10.9141 83.0938 11.2491 83.0938 11.6691C83.0938 12.0891 83.1438 12.4266 83.2438 12.6816C83.3438 12.9316 83.4913 13.1141 83.6863 13.2291C83.8863 13.3441 84.1338 13.4016 84.4288 13.4016Z" fill="#00568E"/>
<path d="M87.1649 14.1666L89.0849 9.16413H90.1874L92.0249 14.1666H90.9674L89.3324 9.50913L89.7824 9.46413L88.1549 14.1666H87.1649ZM88.1774 12.9441L88.4249 12.1641H90.7499L90.8399 12.9441H88.1774Z" fill="#00568E"/>
<path d="M92.6979 14.1666V9.16413H94.5804C95.4104 9.16413 96.0229 9.37413 96.4179 9.79413C96.8179 10.2141 97.0179 10.8366 97.0179 11.6616C97.0179 12.4866 96.8179 13.1116 96.4179 13.5366C96.0229 13.9566 95.4104 14.1666 94.5804 14.1666H92.6979ZM93.7179 13.3491H94.4679C94.9729 13.3491 95.3504 13.2141 95.6004 12.9441C95.8504 12.6741 95.9754 12.2466 95.9754 11.6616C95.9754 11.0766 95.8504 10.6491 95.6004 10.3791C95.3504 10.1091 94.9729 9.97413 94.4679 9.97413H93.7179V13.3491Z" fill="#00568E"/>
<path d="M100.044 14.1666V9.16413H103.397V9.98163H101.072V11.2491H103.097V12.0741H101.064V13.3491H103.397V14.1666H100.044Z" fill="#00568E"/>
<path d="M104.468 14.1666V9.16413H105.518L107.273 11.6841L106.703 11.7216L108.533 9.16413H109.56V14.1666H108.54V9.97413L108.773 10.2441L106.965 12.6966L105.21 10.2366L105.45 10.0266V14.1666H104.468Z" fill="#00568E"/>
</svg>
