<svg width="86" height="19" viewBox="0 0 86 19" fill="none" xmlns="http://www.w3.org/2000/svg">
<path d="M1.72298 19C19.114 19 25.3909 0 42.5853 0C59.7797 0 62.0647 19 83.4476 19C104.83 19 -15.6681 19 1.72298 19Z" fill="white"/>
<path d="M47.7537 11.4082C47.5974 11.2505 47.3845 11.1618 47.1625 11.1618C46.9405 11.1618 46.7277 11.2505 46.5713 11.4082L43.8319 14.1582V7.83332C43.8319 7.37309 43.4591 7 42.9993 7C42.5394 7 42.1666 7.37309 42.1666 7.83332V14.1582L39.4272 11.4082C39.1007 11.0815 38.5714 11.0815 38.2449 11.4082C37.9184 11.735 37.9184 12.2648 38.2449 12.5916L42.4081 16.7581C42.4873 16.834 42.5807 16.8935 42.6829 16.9331C42.8844 17.0223 43.1142 17.0223 43.3157 16.9331C43.4179 16.8935 43.5113 16.834 43.5905 16.7581L47.7537 12.5916C47.9113 12.4351 48 12.2221 48 11.9999C48 11.7777 47.9113 11.5647 47.7537 11.4082Z" fill="#0563A1"/>
</svg>
