<svg width="28" height="28" viewBox="0 0 28 28" fill="none" xmlns="http://www.w3.org/2000/svg">
<path d="M18.2058 5.21576C17.9994 5.21576 17.7977 5.30001 17.6517 5.4473C17.5055 5.59438 17.4218 5.79852 17.4218 6.00677C17.4218 6.21503 17.5055 6.41856 17.6517 6.56564C17.7977 6.71333 17.9994 6.79779 18.2058 6.79779C18.4122 6.79779 18.6145 6.71333 18.7603 6.56564C18.9061 6.41856 18.9898 6.21503 18.9898 6.00677C18.9898 5.79852 18.9061 5.59438 18.7603 5.4473C18.6145 5.30001 18.4122 5.21576 18.2058 5.21576Z" fill="#A7A7A7"/>
<path fill-rule="evenodd" clip-rule="evenodd" d="M23.1619 5.44544L25.8241 6.43524C27.1846 6.94116 27.3878 7.71075 27.3878 8.1246C27.3878 8.53844 27.1846 9.30824 25.8241 9.81416L23.1883 10.7943V14.9378C23.1883 19.2386 19.7431 22.7423 15.4913 22.788V26.2343C15.4913 26.6712 15.1404 27.0253 14.7074 27.0253C14.2744 27.0253 13.9234 26.6712 13.9234 26.2343V22.7891H11.2928V26.2343C11.2928 26.6712 10.9419 27.0253 10.5091 27.0253C10.0761 27.0253 9.72512 26.6712 9.72512 26.2343V22.7891H1.41245C1.12806 22.7891 0.866126 22.6338 0.727707 22.3833C0.589289 22.1326 0.59623 21.8261 0.745673 21.582L10.6416 5.43906V5.43885L12.2469 2.82005L12.2512 2.81305C12.4641 2.47378 12.7121 2.15449 12.9886 1.86404C14.1174 0.678955 15.6349 0.0263672 17.2614 0.0263672C20.3419 0.0263672 22.8806 2.41013 23.1619 5.44544ZM8.00265 16.8274C11.043 16.8274 13.5163 14.3318 13.5163 11.2644C13.5163 9.58818 12.7871 8.04076 11.534 6.9906L5.78979 16.3608C6.48331 16.6676 7.23583 16.8274 8.00265 16.8274ZM21.6205 14.9378C21.6205 18.3946 18.8332 21.207 15.407 21.207H2.81909L4.95886 17.7165C5.90513 18.1713 6.94347 18.4094 8.00264 18.4094C11.9074 18.4094 15.0842 15.2042 15.0842 11.2644C15.0842 9.03529 14.0802 6.9838 12.3649 5.63496L13.578 3.65598C13.7344 3.40734 13.9163 3.17333 14.1192 2.96033C14.9495 2.08857 16.0654 1.6084 17.2614 1.6084C19.6649 1.6084 21.6205 3.58141 21.6205 6.00677V14.9378ZM23.1885 9.10821L25.2819 8.32976C25.4807 8.25581 25.6181 8.18309 25.708 8.12459C25.6181 8.06629 25.4809 7.99358 25.2819 7.91962L23.1885 7.14117V9.10821Z" fill="#A7A7A7"/>
</svg>
