<svg width="29" height="28" viewBox="0 0 29 28" fill="none" xmlns="http://www.w3.org/2000/svg">
<path d="M11.0307 16.2502C10.8171 16.2502 10.6079 16.3377 10.4568 16.4899C10.3059 16.6428 10.2189 16.8534 10.2189 17.069C10.2189 17.2845 10.3059 17.4958 10.4568 17.648C10.6079 17.8003 10.8171 17.8877 11.0307 17.8877C11.2439 17.8877 11.4533 17.8003 11.6042 17.648C11.7551 17.4952 11.8421 17.2845 11.8421 17.069C11.8421 16.8538 11.7551 16.6425 11.6042 16.4899C11.4533 16.3377 11.2439 16.2502 11.0307 16.2502Z" fill="#A7A7A7"/>
<path d="M17.9835 16.2502C17.7699 16.2502 17.5605 16.3377 17.4096 16.4899C17.2585 16.6428 17.1721 16.8534 17.1721 17.069C17.1721 17.2845 17.2585 17.4958 17.4096 17.648C17.5605 17.8003 17.7699 17.8877 17.9835 17.8877C18.1971 17.8877 18.4059 17.8003 18.5574 17.648C18.7083 17.4952 18.7949 17.2845 18.7949 17.069C18.7949 16.8538 18.7083 16.6425 18.5574 16.4899C18.4059 16.3377 18.1971 16.2502 17.9835 16.2502Z" fill="#A7A7A7"/>
<path d="M14.9963 19.7581H14.127C13.6182 19.7581 13.1979 19.9826 12.9737 20.3741C12.7497 20.7655 12.767 21.2452 13.0214 21.69L13.4563 22.4496C13.7107 22.8944 14.1137 23.1492 14.5616 23.1492C15.0096 23.1492 15.4126 22.8944 15.6672 22.4496L16.1018 21.6898C16.3563 21.2452 16.3736 20.7655 16.1496 20.3741C15.9254 19.9826 15.5051 19.7581 14.9963 19.7581V19.7581Z" fill="#A7A7A7"/>
<path fill-rule="evenodd" clip-rule="evenodd" d="M25.6539 21.8339L27.8914 22.9065C28.2963 23.1006 28.4685 23.5888 28.2762 23.9973C28.1374 24.2922 27.8462 24.4649 27.5428 24.4649C27.4259 24.4649 27.3076 24.4393 27.1952 24.3853L25.1834 23.4212C24.0767 26.0912 21.461 27.9723 18.418 27.9723H10.5961C7.55284 27.9723 4.9373 26.0912 3.83048 23.421L1.81863 24.3853C1.70622 24.4393 1.58768 24.4649 1.47082 24.4649C1.16739 24.4649 0.876421 24.2922 0.737382 23.9973C0.545094 23.5888 0.717308 23.1006 1.12217 22.9065L3.35969 21.8339H1.4704C1.02222 21.8339 0.658988 21.4674 0.658988 21.0152C0.658988 20.5632 1.02222 20.1965 1.4704 20.1965H3.27686L3.27855 20.1575L1.12238 19.1238C0.717519 18.9298 0.545305 18.4416 0.737593 18.0331C0.929882 17.6248 1.41377 17.4508 1.81863 17.645L3.56761 18.4834C4.02023 16.9406 4.96413 15.5742 6.26873 14.6105C5.48521 13.4792 4.77248 12.1492 4.18378 10.7152C3.25678 8.45711 2.7338 6.17516 2.71098 4.28998C2.6852 2.14875 3.32355 0.696813 4.50877 0.20132C4.78516 0.0859756 5.08268 0.0273438 5.39308 0.0273438C6.51427 0.0273438 7.77302 0.789984 9.03346 2.23275C10.1893 3.5557 11.2807 5.39226 12.1067 7.40387C12.3269 7.94051 12.5257 8.48269 12.7011 9.0236C13.2887 8.87265 13.8933 8.79653 14.5069 8.79653C15.1205 8.79653 15.7251 8.87265 16.3127 9.02338C16.4879 8.48291 16.6867 7.94072 16.9074 7.40387C17.7331 5.39205 18.8243 3.55549 19.9802 2.23254C21.2408 0.789984 22.4996 0.0273438 23.6207 0.0273438C23.9312 0.0273438 24.2287 0.0859756 24.5051 0.201534C25.6903 0.696813 26.3286 2.14896 26.3026 4.28998C26.2798 6.17537 25.7568 8.45732 24.8298 10.7152C24.2414 12.1492 23.5284 13.479 22.7451 14.6103C24.0497 15.5739 24.9938 16.9406 25.4464 18.4836L27.1952 17.6452C27.6001 17.4512 28.0839 17.625 28.2762 18.0333C28.4687 18.4418 28.2963 18.93 27.8917 19.1243L25.7355 20.1577L25.7372 20.1965H27.5434C27.9914 20.1965 28.3548 20.5632 28.3548 21.0152C28.3548 21.4674 27.9914 21.8339 27.5434 21.8339H25.6539ZM19.664 24.9612C19.664 25.4237 19.5599 25.8618 19.3746 26.2537C21.352 25.9153 22.9866 24.5476 23.7154 22.7177L21.7181 21.7604C21.6317 21.7205 21.5512 21.6649 21.4813 21.5943C21.2021 21.3126 21.1643 20.869 21.3921 20.5434C21.4779 20.4206 21.592 20.3281 21.72 20.2696L23.9574 19.1972C23.5812 17.6642 22.5885 16.3289 21.1829 15.5416C20.9748 15.4249 20.8279 15.2222 20.7812 14.9868C20.7343 14.7514 20.7924 14.5071 20.9397 14.3186C21.8409 13.1664 22.6675 11.7038 23.3306 10.0886C25.1713 5.60464 24.8877 2.13385 23.884 1.71426C23.8046 1.681 23.7184 1.66479 23.6207 1.66479C22.3698 1.66479 20.0205 4.09855 18.4066 8.03051C18.1002 8.77673 17.8388 9.53255 17.63 10.2771C17.5677 10.4986 17.416 10.6834 17.2118 10.7862C17.0077 10.8892 16.7702 10.9007 16.5572 10.8178C15.9026 10.5632 15.2129 10.434 14.5069 10.434C13.8009 10.434 13.111 10.5632 12.4564 10.8178C12.2434 10.9007 12.0059 10.8892 11.8018 10.7862C11.5977 10.6834 11.4459 10.4986 11.3838 10.2771C11.1746 9.53191 10.9134 8.77609 10.6073 8.03051C8.99331 4.09855 6.64401 1.66479 5.39308 1.66479C5.29546 1.66479 5.20925 1.681 5.1298 1.71426C4.12609 2.13385 3.84252 5.60464 5.68299 10.0886C6.34607 11.7038 7.17291 13.1664 8.07413 14.3188C8.22162 14.5073 8.27952 14.7514 8.23261 14.987C8.18591 15.2224 8.03905 15.4252 7.83092 15.5418C6.42552 16.3289 5.43281 17.6642 5.05647 19.197L7.30709 20.2758C7.59003 20.4114 7.77027 20.6992 7.77027 21.0152C7.77027 21.3314 7.59003 21.6192 7.30709 21.7548L5.29842 22.7175C6.02742 24.5476 7.66208 25.9156 9.63948 26.2537C9.45417 25.8618 9.35021 25.4237 9.35021 24.9612C9.35021 24.5092 9.71344 24.1425 10.1616 24.1425C10.6096 24.1425 10.973 24.5092 10.973 24.9612C10.973 25.7188 11.5837 26.3349 12.3343 26.3349C13.0848 26.3349 13.6955 25.7188 13.6955 24.9612C13.6955 24.5092 14.0589 24.1425 14.5069 24.1425C14.9551 24.1425 15.3183 24.5092 15.3183 24.9612C15.3183 25.7188 15.929 26.3349 16.6798 26.3349C17.4303 26.3349 18.0412 25.7188 18.0412 24.9612C18.0412 24.5092 18.4045 24.1425 18.8526 24.1425C19.3006 24.1425 19.664 24.5092 19.664 24.9612Z" fill="#A7A7A7"/>
</svg>
