<svg width="31" height="21" viewBox="0 0 31 21" fill="none" xmlns="http://www.w3.org/2000/svg">
<path d="M11.833 8.82995C12.0619 8.82995 12.2862 8.73652 12.4479 8.57341C12.6098 8.41008 12.7024 8.18393 12.7024 7.95275C12.7024 7.72181 12.6098 7.49611 12.4479 7.33301C12.2862 7.16991 12.0619 7.07556 11.833 7.07556C11.6041 7.07556 11.3804 7.16991 11.2188 7.33301C11.0564 7.49611 10.9636 7.72249 10.9636 7.95275C10.9636 8.18393 11.0564 8.41008 11.2188 8.57341C11.3804 8.73652 11.6041 8.82995 11.833 8.82995Z" fill="#A7A7A7"/>
<path d="M19.2829 8.82995C19.5118 8.82995 19.7354 8.73652 19.8971 8.57341C20.0594 8.41008 20.1522 8.18393 20.1522 7.95275C20.1522 7.72249 20.0594 7.49611 19.8971 7.33301C19.7354 7.16922 19.5118 7.07556 19.2829 7.07556C19.054 7.07556 18.8296 7.16922 18.668 7.33301C18.5063 7.49611 18.4135 7.72181 18.4135 7.95275C18.4135 8.18393 18.5063 8.41008 18.668 8.57341C18.8296 8.73652 19.054 8.82995 19.2829 8.82995Z" fill="#A7A7A7"/>
<path d="M20.2138 11.7735C19.7339 11.7735 19.3445 12.1664 19.3445 12.6507C19.3445 13.4624 18.6902 14.1225 17.886 14.1225C17.2557 14.1225 16.7178 13.7171 16.5142 13.1512C16.6222 13.0466 16.7189 12.9219 16.8011 12.7784L17.2668 11.9645C17.5394 11.488 17.5579 10.9742 17.318 10.5546C17.078 10.1352 16.6274 9.89465 16.0825 9.89465H15.1509C14.6057 9.89465 14.1554 10.1352 13.9152 10.5548C13.6752 10.9742 13.694 11.4882 13.9666 11.9645L14.4323 12.7787C14.4914 12.8819 14.5584 12.9749 14.6313 13.0585C14.4558 13.6723 13.8943 14.1228 13.2301 14.1228C12.4259 14.1228 11.7716 13.4624 11.7716 12.651C11.7716 12.1664 11.3822 11.7738 10.9023 11.7738C10.4221 11.7738 10.0329 12.1664 10.0329 12.651C10.0329 14.4298 11.4671 15.8769 13.2301 15.8769C14.1468 15.8769 14.9745 15.4858 15.5582 14.8602C16.1416 15.4858 16.9693 15.8769 17.886 15.8769C19.649 15.8769 21.0834 14.4298 21.0834 12.651C21.0832 12.1662 20.694 11.7735 20.2138 11.7735Z" fill="#A7A7A7"/>
<path fill-rule="evenodd" clip-rule="evenodd" d="M27.1249 13.528L29.8555 14.658C30.2997 14.8417 30.512 15.3543 30.33 15.8023C30.1921 16.1417 29.8675 16.3468 29.5254 16.3468C29.4154 16.3468 29.3037 16.3258 29.1958 16.2811L24.8559 14.4851C23.2652 18.0704 19.6961 20.5747 15.5579 20.5747C11.4198 20.5747 7.85062 18.0704 6.25994 14.4851L1.9201 16.2811C1.81211 16.3258 1.70049 16.3468 1.59069 16.3468C1.24837 16.3471 0.923943 16.1417 0.78584 15.8023C0.603588 15.3541 0.816177 14.8417 1.26037 14.658L3.9912 13.5282H1.59024C1.11027 13.5282 0.72109 13.1353 0.72109 12.651C0.72109 12.1665 1.11027 11.7738 1.59024 11.7738H3.99097L1.2606 10.644C0.816177 10.4601 0.603815 9.94768 0.786066 9.49949C0.968317 9.05107 1.47613 8.83702 1.92033 9.02069L5.3788 10.4518C5.3786 10.4375 5.37837 10.4232 5.37814 10.4088C5.37756 10.3732 5.37699 10.3377 5.37699 10.302V0.906423C5.37699 0.582958 5.55335 0.285763 5.83612 0.13294C6.11867 -0.0196554 6.46167 -0.00297952 6.72859 0.176571L9.50379 2.04335C11.2493 0.740122 13.3745 0.0292299 15.5579 0.0292299C17.7413 0.0292299 19.8668 0.740122 21.6125 2.04335L24.3875 0.176571C24.6544 -0.00297952 24.9974 -0.0196554 25.28 0.13294C25.5627 0.285763 25.7391 0.582958 25.7391 0.906423V10.302C25.7391 10.3378 25.7385 10.3736 25.7379 10.4093C25.7377 10.4235 25.7375 10.4377 25.7373 10.4518L29.1958 9.02069C29.64 8.83702 30.1478 9.0513 30.33 9.49949C30.512 9.94768 30.2997 10.4601 29.8555 10.644L27.1253 11.7736H29.5256C30.0058 11.7736 30.395 12.1665 30.395 12.6508C30.395 13.1353 30.0058 13.528 29.5256 13.528H27.1249ZM7.86942 13.8192C9.19883 16.7663 12.1452 18.8204 15.5579 18.8204C18.9709 18.8204 21.917 16.7663 23.2464 13.8192L22.3954 13.4672C22.2021 13.3904 22.0359 13.244 21.9363 13.0432C21.7744 12.7163 21.8303 12.3221 22.0766 12.0541C22.1677 11.9554 22.2772 11.8814 22.3963 11.8343L23.9546 11.1895C23.9847 10.8978 24.0004 10.6017 24.0004 10.302V2.54546L22.0513 3.85668C21.7289 4.07347 21.303 4.04903 21.0074 3.79638C19.4871 2.49841 17.5516 1.78363 15.5579 1.78363C13.5643 1.78363 11.629 2.49841 10.1085 3.79638C9.81283 4.0488 9.3872 4.07347 9.0648 3.85668L7.11551 2.54546V10.302C7.11551 10.6017 7.13113 10.8978 7.16124 11.1895L8.73177 11.8394C9.05801 11.9744 9.27128 12.2949 9.27128 12.6508C9.27128 13.0067 9.05824 13.3274 8.73177 13.4624L7.86942 13.8192Z" fill="#A7A7A7"/>
</svg>
