<svg width="50" height="50" viewBox="0 0 50 50" fill="none" xmlns="http://www.w3.org/2000/svg">
<path d="M28.1015 28.8616C26.2145 27.579 23.776 27.579 21.8891 28.8616C20.4573 29.8347 19.7314 30.8901 19.7314 31.9986C19.7314 33.1711 20.1549 34.1566 20.9238 34.7734C21.4512 35.1966 22.1112 35.4148 22.8357 35.4148C23.1139 35.4148 23.4017 35.3826 23.6949 35.3174C24.558 35.1258 25.4329 35.1258 26.296 35.3174C27.3534 35.5521 28.3372 35.3589 29.0669 34.7733C29.8359 34.1565 30.2593 33.171 30.2593 31.9985C30.2591 30.8901 29.5331 29.8347 28.1015 28.8616ZM28.1512 33.6323C27.769 33.9389 27.2372 34.0277 26.613 33.8892C26.0762 33.77 25.5358 33.7104 24.9953 33.7104C24.4548 33.7104 23.9142 33.77 23.3775 33.8892C22.7535 34.0278 22.2214 33.939 21.8392 33.6323C21.4234 33.2987 21.1945 32.7185 21.1945 31.9987C21.1945 31.2583 22.0194 30.5422 22.7115 30.0718C24.0988 29.1289 25.8918 29.1289 27.279 30.0718C27.971 30.5421 28.7959 31.2583 28.7959 31.9987C28.7959 32.7185 28.5669 33.2987 28.1512 33.6323Z" fill="#0563A1"/>
<path d="M22.9169 25.2615C23.3909 25.8608 24.1016 26.2233 24.8666 26.256C24.905 26.2577 24.9434 26.2584 24.9817 26.2584C25.7293 26.2584 26.4472 25.9475 26.9666 25.395C27.5258 24.8001 27.8213 24.099 27.8213 23.3676C27.8213 21.812 26.5557 20.5464 25 20.5464C24.1846 20.5464 23.3741 20.9058 22.8319 21.5079C22.3395 22.0546 22.1089 22.7423 22.1826 23.4442C22.2541 24.1245 22.5013 24.736 22.9169 25.2615ZM23.9193 22.4868C24.1884 22.1879 24.5924 22.0094 25 22.0094C25.7489 22.0094 26.3582 22.6187 26.3582 23.3675C26.3582 23.7298 26.2085 24.0652 25.9006 24.3928C25.6464 24.6633 25.2926 24.8093 24.9291 24.7941C24.5846 24.7795 24.2776 24.6231 24.0646 24.3538C23.8235 24.0491 23.68 23.6915 23.6379 23.2912C23.5996 22.9271 23.7697 22.6528 23.9193 22.4868Z" fill="#0563A1"/>
<path d="M21.1976 26.4655C21.2105 25.7954 21.037 25.1591 20.6823 24.5741C20.3162 23.9708 19.7165 23.5629 18.9935 23.4256C18.1981 23.2745 17.335 23.4786 16.6858 23.9721C15.4473 24.9134 15.2056 26.6869 16.1469 27.9254C16.147 27.9254 16.147 27.9255 16.147 27.9255C16.5897 28.5079 17.2492 28.8871 18.0543 29.0223C18.2068 29.048 18.3601 29.0606 18.5121 29.0606C19.1435 29.0606 19.7576 28.8432 20.247 28.4371C20.8364 27.9482 21.1829 27.2296 21.1976 26.4655ZM19.3128 27.311C19.0332 27.5431 18.6632 27.6409 18.2966 27.5794C17.8532 27.5049 17.531 27.3285 17.3118 27.04C16.8587 26.4438 16.975 25.5901 17.5711 25.137C17.8956 24.8904 18.3253 24.788 18.7204 24.863C18.9399 24.9047 19.2414 25.0201 19.4313 25.333C19.64 25.6773 19.7421 26.0488 19.7345 26.4373C19.7281 26.7806 19.5783 27.0908 19.3128 27.311Z" fill="#0563A1"/>
<path d="M33.3141 23.9724C32.665 23.4789 31.8022 23.2747 31.0063 23.4258C30.2834 23.5632 29.6836 23.9711 29.3177 24.5744C28.9629 25.1592 28.7895 25.7956 28.8024 26.4659C28.8171 27.2299 29.1636 27.9485 29.7531 28.4374C30.2425 28.8436 30.8566 29.0609 31.4879 29.0609C31.6399 29.0609 31.7931 29.0484 31.9456 29.0227C32.7508 28.8875 33.4104 28.5083 33.8529 27.9259C34.7943 26.6873 34.5526 24.9138 33.3141 23.9724ZM32.688 27.0404C32.4689 27.3288 32.1467 27.5052 31.7032 27.5796C31.3368 27.6411 30.9667 27.5434 30.6871 27.3113C30.4216 27.091 30.2718 26.7808 30.2653 26.4377C30.2577 26.049 30.3599 25.6774 30.5685 25.3334C30.7583 25.0204 31.0598 24.905 31.2793 24.8633C31.3647 24.8472 31.4516 24.8392 31.5387 24.8392C31.8551 24.8392 32.1742 24.9439 32.4286 25.1372C33.0249 25.5904 33.1412 26.4442 32.688 27.0404Z" fill="#0563A1"/>
<path d="M47.0055 37.9102H46.6446L46.7205 35.6594C46.9139 29.9164 46.1436 24.2237 44.4309 18.7391C43.9351 17.1515 42.5786 16.034 40.9646 15.8292C40.6239 13.8274 39.0136 12.3131 37.0084 12.085C36.4757 10.4726 34.9662 9.35469 33.2206 9.35469C32.961 9.35469 32.7049 9.37937 32.4541 9.42834C31.8193 7.48312 29.9788 6.10083 27.873 6.10083C26.5447 6.10083 25.29 6.64727 24.3879 7.59237C23.7392 7.15967 22.9776 6.92732 22.1798 6.92732C20.5147 6.92732 19.0643 7.9445 18.4719 9.4379C18.206 9.38269 17.9343 9.35479 17.6585 9.35479C15.9129 9.35479 14.4032 10.4728 13.8708 12.0854C11.8847 12.3135 10.2752 13.8141 9.92087 15.795H9.57294C7.72799 15.795 6.11901 16.9782 5.56906 18.7394C3.85629 24.2241 3.08599 29.917 3.27952 35.6597L3.3554 37.9105H2.99449C1.34327 37.9102 0 39.2535 0 40.9047C0 42.5559 1.34327 43.8993 2.99449 43.8993H6.77402C7.17814 43.8993 7.50559 43.5717 7.50559 43.1677C7.50559 42.7637 7.17814 42.4361 6.77402 42.4361H2.99449C2.15015 42.4361 1.46315 41.7491 1.46315 40.9047C1.46315 40.0603 2.15015 39.3734 2.99449 39.3734H47.0054C47.8498 39.3734 48.5368 40.0604 48.5368 40.9047C48.5368 41.7491 47.8498 42.4361 47.0054 42.4361H9.70033C9.2962 42.4361 8.96875 42.7637 8.96875 43.1677C8.96875 43.5717 9.2962 43.8993 9.70033 43.8993H47.0054C48.6566 43.8993 49.9999 42.5559 49.9999 40.9047C50 39.2535 48.6566 37.9102 47.0055 37.9102ZM4.74189 35.6101C4.55383 30.0322 5.30199 24.5027 6.96569 19.1752C7.32377 18.0285 8.37149 17.258 9.57294 17.258H23.4258C23.8299 17.258 24.1574 16.9304 24.1574 16.5264C24.1574 16.1224 23.8299 15.7948 23.4258 15.7948H11.4189C11.7758 14.4683 12.981 13.5185 14.4003 13.5185H14.4007L14.4389 13.5195C14.4418 13.5196 14.4448 13.5196 14.4476 13.5196C14.8031 13.5196 15.1079 13.2637 15.1684 12.9125C15.378 11.6988 16.4253 10.8178 17.6587 10.8178C18.011 10.8178 18.3527 10.8894 18.6742 11.0308C18.8802 11.1213 19.1165 11.112 19.3147 11.0055C19.513 10.899 19.6512 10.7072 19.6895 10.4854C19.899 9.27149 20.9463 8.39037 22.1799 8.39037C22.8584 8.39037 23.4954 8.65569 23.9739 9.13756C24.1277 9.29246 24.3425 9.37108 24.5603 9.35059C24.7778 9.3305 24.9749 9.21433 25.0978 9.03377C25.7244 8.11335 26.7619 7.56389 27.8731 7.56389C29.5401 7.56389 30.9684 8.80747 31.1952 10.4565C31.2264 10.6834 31.3621 10.8827 31.5618 10.9948C31.7617 11.1069 32.0023 11.119 32.2122 11.0276C32.5315 10.8884 32.8708 10.8178 33.2208 10.8178C34.4544 10.8178 35.5017 11.6988 35.7112 12.9125C35.7724 13.2665 36.0814 13.5244 36.4408 13.5196L36.4806 13.5184C37.9048 13.5184 39.1054 14.4666 39.461 15.7949H26.352C25.948 15.7949 25.6204 16.1225 25.6204 16.5265C25.6204 16.9305 25.948 17.2581 26.352 17.2581H40.427C41.6283 17.2581 42.6761 18.0286 43.0342 19.1753C44.6978 24.5025 45.446 30.032 45.258 35.6102L45.1805 37.9104H4.81944L4.74189 35.6101Z" fill="#0563A1"/>
</svg>
