<svg width="29" height="23" viewBox="0 0 29 23" fill="none" xmlns="http://www.w3.org/2000/svg">
<path fill-rule="evenodd" clip-rule="evenodd" d="M21.7458 1.27554L28.2229 9.10867C28.3449 9.25607 28.4116 9.44214 28.4116 9.63419C28.4116 11.7822 26.6795 13.5296 24.5507 13.5296C23.7182 13.5296 22.9471 13.2615 22.3158 12.8076V15.7846C22.3158 18.0106 20.6442 19.8492 18.501 20.0915C17.8428 21.6864 16.2903 22.7553 14.5364 22.7553C12.7825 22.7553 11.2302 21.6864 10.5715 20.0917C8.42851 19.8492 6.75678 18.0106 6.75678 15.7846V12.8078C6.12565 13.2615 5.35457 13.5296 4.52209 13.5296C2.39305 13.5296 0.661194 11.7822 0.661194 9.63419C0.661194 9.44214 0.727885 9.25607 0.849835 9.10867L7.32609 1.27682C7.40782 1.16296 7.49737 1.0553 7.59392 0.954254C7.61805 0.926056 7.64388 0.900208 7.67098 0.876282C8.20917 0.351196 8.94108 0.0273438 9.7471 0.0273438H19.3259C20.1304 0.0273438 20.8613 0.350342 21.3994 0.873932C21.4295 0.900421 21.4583 0.929047 21.485 0.960663C21.5788 1.05936 21.666 1.16446 21.7458 1.27554ZM2.30392 9.91122C2.43963 11.0244 3.38263 11.8889 4.52209 11.8889C5.7543 11.8889 6.757 10.8774 6.75678 9.63416V4.526L2.30392 9.91122ZM14.5364 21.1147C13.6279 21.1147 12.8064 20.6537 12.3207 19.9268C13.2212 19.6456 13.9959 19.0735 14.5364 18.3195C15.0769 19.0735 15.8516 19.6456 16.752 19.9268C16.2665 20.6537 15.4451 21.1147 14.5364 21.1147ZM14.5364 14.9352C14.5637 14.9073 14.6001 14.8615 14.6395 14.7925L15.5105 13.2705C15.5501 13.2015 15.571 13.147 15.5814 13.109C15.5437 13.0994 15.4864 13.0904 15.4074 13.0904H13.6654C13.5864 13.0904 13.529 13.0994 13.4913 13.109C13.5019 13.147 13.5229 13.2015 13.5623 13.2705L14.4335 14.7925C14.4729 14.8615 14.5091 14.9073 14.5364 14.9352ZM20.6898 15.7846C20.6898 17.2701 19.4921 18.4788 18.0196 18.4788C16.7321 18.4788 15.6547 17.5547 15.4042 16.3293C15.6526 16.1606 15.8725 15.9188 16.0476 15.6129L16.9188 14.0906C17.2794 13.4602 17.3143 12.7982 17.0143 12.2741C16.7145 11.7503 16.1289 11.4498 15.4074 11.4498H13.6654C12.9438 11.4498 12.3582 11.7503 12.0584 12.2741C11.7584 12.7982 11.7934 13.4602 12.1541 14.0908L13.0251 15.6129C13.2002 15.9188 13.4202 16.1606 13.6685 16.3293C13.4181 17.5547 12.3406 18.479 11.0532 18.479C9.58069 18.479 8.38278 17.2704 8.38278 15.7846V3.04434C8.38278 2.76364 8.46683 2.50238 8.61017 2.28448L8.80029 2.05463C9.04588 1.81558 9.37955 1.66797 9.74688 1.66797H19.3259C19.6941 1.66797 20.0284 1.81622 20.2742 2.05676L20.4601 2.28171C20.6049 2.50046 20.6896 2.76321 20.6898 3.04605V3.04733V15.7846ZM22.316 9.63419C22.316 10.8775 23.3185 11.889 24.5507 11.889C25.6901 11.889 26.6331 11.0244 26.7688 9.91125L22.316 4.52582V9.63419Z" fill="#A7A7A7"/>
<path d="M11.053 7.0564C10.8389 7.0564 10.6297 7.14377 10.4784 7.29694C10.3266 7.44946 10.24 7.66052 10.24 7.87671C10.24 8.09268 10.3266 8.30417 10.4784 8.45691C10.6297 8.60944 10.8389 8.69702 11.053 8.69702C11.267 8.69702 11.4768 8.60944 11.628 8.45691C11.7792 8.30417 11.866 8.09268 11.866 7.87671C11.866 7.66052 11.7792 7.44946 11.628 7.29694C11.4768 7.14377 11.267 7.0564 11.053 7.0564Z" fill="#A7A7A7"/>
<path d="M18.0198 7.0564C17.8057 7.0564 17.5959 7.14377 17.4448 7.29694C17.2936 7.44946 17.2068 7.66052 17.2068 7.87671C17.2068 8.09268 17.2936 8.30417 17.4448 8.45691C17.5959 8.60944 17.8057 8.69702 18.0198 8.69702C18.2338 8.69702 18.443 8.60944 18.5944 8.45691C18.7462 8.30417 18.8328 8.09268 18.8328 7.87671C18.8328 7.66052 18.7462 7.44946 18.5944 7.29694C18.443 7.14377 18.2338 7.0564 18.0198 7.0564Z" fill="#A7A7A7"/>
</svg>
