<svg width="31" height="26" viewBox="0 0 31 26" fill="none" xmlns="http://www.w3.org/2000/svg">
<path fill-rule="evenodd" clip-rule="evenodd" d="M22.0093 6.04097C26.6686 7.53311 30.0331 12.2023 30.2 12.4372C30.4166 12.7426 30.4166 13.1535 30.1997 13.459C30.0331 13.6938 26.6686 18.3628 22.0093 19.8552C21.9051 21.2511 21.5056 22.9427 20.324 24.1347C18.8859 25.5857 16.7059 25.8669 15.2332 25.8669C14.3534 25.8669 13.726 25.7666 13.6597 25.7557C13.2925 25.6944 13.0045 25.4039 12.9438 25.0331C12.9166 24.867 12.3436 21.2048 14.1061 18.8277C12.3477 17.8244 10.8811 16.4896 9.85098 15.4002C9.72895 16.7619 9.31736 18.3801 8.17857 19.5292C6.75995 20.9606 4.63293 21.2612 3.09863 21.2612C2.19122 21.2612 1.54145 21.1545 1.51429 21.1499C1.14684 21.0887 0.859086 20.7984 0.798185 20.4276C0.768979 20.2488 0.107215 16.0213 2.40449 13.7034C2.70062 13.4046 3.02776 13.1558 3.37393 12.9479C3.02776 12.7403 2.70062 12.4913 2.40471 12.1927C0.107441 9.8748 0.768979 5.64737 0.798411 5.46851C0.859086 5.09776 1.14707 4.80741 1.51429 4.74619C1.54145 4.74163 2.19144 4.63495 3.09863 4.63495C4.63293 4.63495 6.75995 4.93534 8.17857 6.36694C9.31736 7.51598 9.72895 9.13399 9.85098 10.4959C10.8811 9.40651 12.3477 8.07176 14.1061 7.0687C12.3436 4.69114 12.9166 1.02909 12.9438 0.863016C13.0045 0.492265 13.2925 0.201923 13.6597 0.140474C13.8372 0.111006 18.0267 -0.556712 20.324 1.76145C21.5056 2.95343 21.9051 4.645 22.0093 6.04097ZM19.0944 3.00186C17.9475 1.8446 15.8359 1.7185 14.5941 1.80006C14.5248 2.87919 14.5553 5.0411 15.7233 6.28676C16.8137 5.85525 17.9848 5.58615 19.2099 5.58615H19.2101C19.5517 5.58615 19.8889 5.60808 20.2214 5.6476C20.0931 4.70416 19.782 3.69561 19.0944 3.00186ZM3.63407 10.9521C2.41197 9.71879 2.37824 7.50845 2.44842 6.41059C2.6361 6.39825 2.85616 6.38934 3.09864 6.38934C4.08574 6.38934 5.89874 6.54765 6.94923 7.60736C8.11519 8.78403 8.19941 10.8491 8.14371 11.9899C7.94652 11.9789 7.72488 11.9714 7.48467 11.9714C7.05541 11.9714 6.57952 11.9952 6.08597 12.0603C5.22769 11.9191 4.28474 11.6086 3.63407 10.9521ZM3.09863 19.5068C4.08573 19.5068 5.89874 19.3485 6.949 18.2888C8.0493 17.1786 8.20891 15.1734 8.14869 13.9058C7.95036 13.917 7.72691 13.9247 7.48489 13.9247C7.05541 13.9247 6.57952 13.901 6.08574 13.8359C5.22769 13.977 4.28474 14.2875 3.63407 14.944C2.4869 16.1013 2.36216 18.2323 2.44298 19.4853C2.6318 19.4977 2.85389 19.5068 3.09863 19.5068ZM19.0944 22.8943C17.8703 24.1294 15.6751 24.1616 14.5886 24.0904C14.5089 22.8586 14.6291 20.779 15.7233 19.6094C16.8137 20.0409 17.9848 20.31 19.2101 20.31C19.5517 20.31 19.8888 20.2881 20.2214 20.2485C20.093 21.192 19.7822 22.2005 19.0944 22.8943ZM20.9131 18.3438C20.9432 18.3344 20.974 18.3271 21.0052 18.321C24.497 17.4262 27.3736 14.2094 28.3913 12.9486C27.2833 11.5796 23.9733 7.8963 20.0795 7.3974V12.9482C20.0795 13.4324 19.6903 13.8254 19.2101 13.8254C18.7299 13.8254 18.3407 13.4324 18.3407 12.9482V7.3974C14.4485 7.8963 11.1388 11.5775 10.0296 12.9482C10.8983 14.0213 13.1184 16.5143 15.9115 17.7832C15.9123 17.7835 15.9131 17.7839 15.9139 17.7843C15.9143 17.7845 15.9147 17.7847 15.9151 17.7848C16.9484 18.2538 18.0595 18.5556 19.2101 18.5556C19.7897 18.5556 20.3589 18.479 20.9131 18.3438Z" fill="#A7A7A7"/>
<path d="M23.9061 11.1312C23.6769 11.1312 23.4528 11.2253 23.2912 11.3884C23.1293 11.5515 23.0367 11.7775 23.0367 12.0084C23.0367 12.2394 23.1293 12.4657 23.2912 12.6288C23.4535 12.792 23.6769 12.8856 23.9061 12.8856C24.1349 12.8856 24.3586 12.792 24.521 12.6288C24.6826 12.4657 24.7754 12.2394 24.7754 12.0084C24.7754 11.7775 24.6826 11.5515 24.521 11.3884C24.3586 11.2253 24.1349 11.1312 23.9061 11.1312Z" fill="#A7A7A7"/>
</svg>
