<svg width="150" height="40" viewBox="0 0 150 40" fill="none" xmlns="http://www.w3.org/2000/svg">
<g clip-path="url(#clip0)">
<path d="M143.333 0H6.66667C2.98477 0 0 2.98477 0 6.66667V33.3333C0 37.0152 2.98477 40 6.66667 40H143.333C147.015 40 150 37.0152 150 33.3333V6.66667C150 2.98477 147.015 0 143.333 0Z" fill="#FCC90F"/>
<path d="M74.8533 21.5748C74.0975 21.5784 73.3598 21.8058 72.7332 22.2282C72.1065 22.6507 71.619 23.2493 71.3323 23.9485C71.0455 24.6478 70.9723 25.4163 71.122 26.157C71.2716 26.8978 71.6373 27.5777 72.1729 28.1108C72.7086 28.6439 73.3902 29.0065 74.1317 29.1526C74.8731 29.2988 75.6413 29.2219 76.3392 28.9319C77.037 28.6419 77.6333 28.1517 78.0528 27.523C78.4723 26.8944 78.6963 26.1556 78.6963 25.3998C78.7036 24.894 78.6091 24.3918 78.4183 23.9233C78.2276 23.4547 77.9445 23.0293 77.5859 22.6724C77.2274 22.3155 76.8006 22.0344 76.3312 21.8458C75.8617 21.6573 75.3591 21.5651 74.8533 21.5748ZM74.8533 27.7218C74.3885 27.7543 73.9247 27.6463 73.5222 27.4117C73.1196 27.1771 72.7969 26.8268 72.5961 26.4064C72.3953 25.986 72.3255 25.5149 72.396 25.0543C72.4664 24.5938 72.6738 24.1651 72.9912 23.824C73.3085 23.4828 73.7211 23.2451 74.1753 23.1415C74.6296 23.038 75.1045 23.0735 75.5384 23.2435C75.9722 23.4135 76.3448 23.71 76.6078 24.0946C76.8708 24.4791 77.0121 24.9339 77.0133 25.3998C77.0278 25.6951 76.983 25.9902 76.8816 26.2678C76.7803 26.5454 76.6244 26.8 76.423 27.0164C76.2217 27.2328 75.9791 27.4068 75.7095 27.5278C75.4398 27.649 75.1488 27.715 74.8533 27.7218ZM66.4743 21.5748C65.7182 21.5766 64.9795 21.8024 64.3517 22.2238C63.7238 22.6452 63.235 23.2433 62.9468 23.9423C62.6588 24.6413 62.5843 25.4102 62.7328 26.1516C62.8814 26.8929 63.2465 27.5737 63.7818 28.1077C64.3171 28.6418 64.9986 29.0051 65.7403 29.152C66.4821 29.2988 67.2507 29.2226 67.9491 28.9328C68.6475 28.643 69.2443 28.1528 69.6643 27.5239C70.0842 26.8952 70.3083 26.156 70.3083 25.3998C70.3156 24.894 70.2211 24.3918 70.0303 23.9233C69.8396 23.4547 69.5565 23.0293 69.1979 22.6724C68.8393 22.3155 68.4126 22.0344 67.9432 21.8458C67.4737 21.6573 66.9711 21.5651 66.4653 21.5748H66.4743ZM66.4743 27.7218C66.0093 27.7562 65.5447 27.6498 65.141 27.4163C64.7373 27.1829 64.4133 26.8334 64.2111 26.4133C64.0088 25.9932 63.9378 25.5219 64.0071 25.0608C64.0764 24.5998 64.283 24.1703 64.5998 23.8282C64.9167 23.4861 65.3293 23.2473 65.7837 23.143C66.2381 23.0387 66.7134 23.0736 67.1478 23.2432C67.5821 23.4128 67.9553 23.7092 68.2188 24.0938C68.4824 24.4785 68.624 24.9336 68.6253 25.3998C68.6398 25.6951 68.595 25.9902 68.4936 26.2678C68.3923 26.5454 68.2363 26.8 68.035 27.0164C67.8337 27.2328 67.5911 27.4068 67.3215 27.5278C67.0518 27.649 66.7608 27.715 66.4653 27.7218H66.4743ZM56.4933 22.7538V24.3738H60.3813C60.3203 25.1368 60.0031 25.8568 59.4813 26.4168C59.0923 26.8131 58.6247 27.1234 58.1085 27.328C57.5923 27.5327 57.0391 27.6269 56.4843 27.6048C55.3385 27.6048 54.2398 27.1497 53.4296 26.3395C52.6194 25.5294 52.1643 24.4306 52.1643 23.2848C52.1643 22.1391 52.6194 21.0403 53.4296 20.2302C54.2398 19.42 55.3385 18.9648 56.4843 18.9648C57.5803 18.9469 58.6387 19.3645 59.4273 20.1258L60.5703 18.9828C60.0379 18.4438 59.4028 18.017 58.7024 17.7279C58.0021 17.4388 57.2508 17.2933 56.4933 17.2998C55.6932 17.2687 54.895 17.3994 54.1466 17.6841C53.3983 17.9688 52.715 18.4017 52.1379 18.9568C51.5608 19.5118 51.1018 20.1777 50.7882 20.9144C50.4746 21.6512 50.3129 22.4436 50.3129 23.2443C50.3129 24.045 50.4746 24.8375 50.7882 25.5743C51.1018 26.311 51.5608 26.9768 52.1379 27.5319C52.715 28.087 53.3983 28.5198 54.1466 28.8046C54.895 29.0893 55.6932 29.22 56.4933 29.1888C57.2636 29.2237 58.0325 29.0931 58.7482 28.8058C59.4638 28.5187 60.1097 28.0815 60.6423 27.5238C61.5852 26.4878 62.0886 25.126 62.0463 23.7258C62.0492 23.3848 62.019 23.0442 61.9563 22.7088L56.4933 22.7538ZM97.2725 24.0138C97.0375 23.3233 96.5984 22.7203 96.0134 22.2848C95.4284 21.8493 94.725 21.6017 93.9967 21.5748C93.5042 21.5738 93.0167 21.6739 92.5642 21.8688C92.1125 22.0635 91.705 22.349 91.3675 22.7075C91.03 23.066 90.77 23.4899 90.6025 23.953C90.4358 24.4161 90.3658 24.9085 90.3967 25.3998C90.385 25.9028 90.4758 26.4029 90.6625 26.8702C90.8492 27.3374 91.1283 27.7623 91.4825 28.1193C91.8375 28.4763 92.26 28.7582 92.7259 28.9482C93.1917 29.1381 93.6908 29.2322 94.1942 29.2248C94.8242 29.2283 95.4442 29.0754 96 28.7802C96.5567 28.4848 97.0309 28.0563 97.38 27.5328L96.075 26.6328C95.8809 26.9575 95.605 27.2261 95.275 27.4123C94.945 27.5984 94.5725 27.6958 94.1942 27.6948C93.8042 27.7097 93.4192 27.6069 93.0884 27.3998C92.7575 27.1928 92.4975 26.891 92.34 26.5338L97.4617 24.4188L97.2725 24.0138ZM92.0525 25.2918C92.0342 25.0134 92.0717 24.7343 92.1625 24.4705C92.2534 24.2068 92.3967 23.9639 92.5825 23.7561C92.7683 23.5482 92.9942 23.3796 93.2458 23.26C93.4983 23.1404 93.7717 23.0724 94.05 23.0598C94.3408 23.0407 94.63 23.1073 94.8825 23.2513C95.1359 23.3953 95.3409 23.6103 95.4725 23.8698L92.0525 25.2918ZM87.8942 28.9998H89.5775V17.7498H87.8942V28.9998ZM85.14 22.4298H85.0775C84.8234 22.1463 84.5125 21.9194 84.1658 21.7643C83.8183 21.6093 83.4417 21.5293 83.0613 21.5298C82.0778 21.5775 81.1503 22.0018 80.471 22.7148C79.7918 23.4277 79.413 24.3747 79.413 25.3593C79.413 26.344 79.7918 27.291 80.471 28.0039C81.1503 28.7168 82.0778 29.1412 83.0613 29.1888C83.4425 29.1953 83.8208 29.118 84.1692 28.9625C84.5175 28.807 84.8275 28.5771 85.0775 28.2888H85.1317V28.8378C85.1317 30.3048 84.3483 31.0878 83.0883 31.0878C82.6686 31.078 82.2613 30.9435 81.9184 30.7015C81.5754 30.4595 81.3122 30.1209 81.1623 29.7288L79.6953 30.3408C79.9714 31.0126 80.4419 31.5865 81.0465 31.9889C81.651 32.3914 82.362 32.6042 83.0883 32.5998C85.0592 32.5998 86.6883 31.4388 86.6883 28.6128V21.7998H85.14V22.4298ZM83.2143 27.7218C82.6338 27.6707 82.0934 27.4039 81.6999 26.9741C81.3062 26.5443 81.0879 25.9826 81.0879 25.3998C81.0879 24.817 81.3062 24.2554 81.6999 23.8256C82.0934 23.3958 82.6338 23.129 83.2143 23.0778C83.5025 23.0926 83.7842 23.1648 84.0433 23.2903C84.3033 23.4157 84.535 23.5918 84.725 23.8082C84.9158 24.0246 85.0608 24.2768 85.1525 24.5503C85.2433 24.8236 85.2792 25.1124 85.2575 25.3998C85.2817 25.6884 85.2475 25.9791 85.1567 26.2541C85.0659 26.5291 84.92 26.7828 84.7284 26.9998C84.5359 27.2169 84.3025 27.3928 84.0408 27.5169C83.7792 27.641 83.495 27.7107 83.2053 27.7218H83.2143ZM105.157 17.7498H101.133V28.9998H102.817V24.7338H105.165C105.645 24.7683 106.127 24.7036 106.58 24.5437C107.033 24.3838 107.449 24.1322 107.802 23.8046C108.153 23.4769 108.434 23.0803 108.626 22.6394C108.818 22.1985 108.918 21.7228 108.918 21.2418C108.918 20.7609 108.818 20.2852 108.626 19.8443C108.434 19.4033 108.153 19.0068 107.802 18.6791C107.449 18.3514 107.033 18.0998 106.58 17.94C106.127 17.7801 105.645 17.7153 105.165 17.7498H105.157ZM105.157 23.1498H102.808V19.3158H105.193C105.704 19.3158 106.195 19.5193 106.558 19.8813C106.919 20.2433 107.123 20.7343 107.123 21.2463C107.123 21.7583 106.919 22.2493 106.558 22.6114C106.195 22.9734 105.704 23.1768 105.193 23.1768L105.157 23.1498ZM115.533 21.5298C114.921 21.4932 114.311 21.6364 113.778 21.9418C113.246 22.2472 112.814 22.7015 112.537 23.2488L114.03 23.8698C114.178 23.5983 114.401 23.3755 114.673 23.2285C114.944 23.0815 115.253 23.0167 115.56 23.0418C115.774 23.0169 115.99 23.0348 116.197 23.0943C116.403 23.1539 116.597 23.2541 116.764 23.389C116.932 23.5238 117.071 23.6908 117.173 23.8799C117.275 24.0691 117.339 24.2768 117.36 24.4908V24.6078C116.82 24.3217 116.217 24.1733 115.605 24.1758C113.994 24.1758 112.365 25.0758 112.365 26.7048C112.381 27.0522 112.467 27.3928 112.617 27.7066C112.766 28.0203 112.978 28.3009 113.238 28.5317C113.498 28.7624 113.802 28.9387 114.131 29.05C114.46 29.1613 114.808 29.2055 115.155 29.1798C115.579 29.2103 116.003 29.1261 116.383 28.936C116.763 28.746 117.085 28.4572 117.315 28.0998H117.369V28.9998H118.989V24.6708C118.989 22.6998 117.495 21.5568 115.578 21.5568L115.533 21.5298ZM115.327 27.6948C114.778 27.6948 114.013 27.4158 114.013 26.7408C114.013 25.8408 114.967 25.5438 115.813 25.5438C116.347 25.5307 116.875 25.6612 117.343 25.9218C117.286 26.4091 117.056 26.8596 116.693 27.1903C116.331 27.5212 115.862 27.7099 115.372 27.7218L115.327 27.6948ZM124.893 21.7998L122.968 26.6778H122.913L120.915 21.7998H119.115L122.113 28.6218L120.403 32.4108H122.158L126.765 21.7998H124.893ZM109.764 28.9998H111.448V17.7498H109.764V28.9998Z" fill="#00568E"/>
<path d="M43.3856 19.1319L39.0138 16.6092L35.4182 20.0849L38.7043 23.2615L43.3856 20.5595C43.6435 20.4108 43.7976 20.1438 43.7976 19.846C43.7977 19.548 43.6435 19.2811 43.3856 19.1319Z" fill="#00568E"/>
<path d="M38.2717 16.1805L33.4607 13.4031L22.9169 8L34.8257 19.512L38.2717 16.1805Z" fill="#00568E"/>
<path d="M23.092 32L33.4788 26.2784L37.9623 23.6901L34.8257 20.6578L23.092 32Z" fill="#00568E"/>
<path d="M22.2135 8.46605L22.2023 31.7146L34.2331 20.0847L22.2135 8.46605Z" fill="#00568E"/>
<path d="M51.3958 12.5V7.49746H53.2783C54.1083 7.49746 54.7208 7.70746 55.1158 8.12746C55.5158 8.54746 55.7158 9.16996 55.7158 9.99496C55.7158 10.82 55.5158 11.445 55.1158 11.87C54.7208 12.29 54.1083 12.5 53.2783 12.5H51.3958ZM52.4158 11.6825H53.1658C53.6708 11.6825 54.0483 11.5475 54.2983 11.2775C54.5483 11.0075 54.6733 10.58 54.6733 9.99496C54.6733 9.40996 54.5483 8.98246 54.2983 8.71246C54.0483 8.44246 53.6708 8.30746 53.1658 8.30746H52.4158V11.6825Z" fill="#00568E"/>
<path d="M58.8225 12.59C58.3275 12.59 57.9 12.4975 57.54 12.3125C57.185 12.1225 56.9125 11.8375 56.7225 11.4575C56.5325 11.0725 56.4375 10.5875 56.4375 10.0025C56.4375 9.14746 56.6425 8.50246 57.0525 8.06746C57.4675 7.62746 58.0575 7.40746 58.8225 7.40746C59.3175 7.40746 59.7425 7.50246 60.0975 7.69246C60.4575 7.87746 60.7325 8.16246 60.9225 8.54746C61.1125 8.92746 61.2075 9.40996 61.2075 9.99496C61.2075 10.85 61 11.4975 60.585 11.9375C60.175 12.3725 59.5875 12.59 58.8225 12.59ZM58.8225 11.735C59.1175 11.735 59.3625 11.6775 59.5575 11.5625C59.7575 11.4475 59.9075 11.2625 60.0075 11.0075C60.1075 10.7475 60.1575 10.41 60.1575 9.99496C60.1575 9.57496 60.1075 9.23996 60.0075 8.98996C59.9075 8.73496 59.7575 8.54996 59.5575 8.43496C59.3625 8.31996 59.1175 8.26246 58.8225 8.26246C58.5275 8.26246 58.28 8.32246 58.08 8.44246C57.885 8.55746 57.7375 8.74246 57.6375 8.99746C57.5375 9.24746 57.4875 9.58246 57.4875 10.0025C57.4875 10.4225 57.5375 10.76 57.6375 11.015C57.7375 11.265 57.885 11.4475 58.08 11.5625C58.28 11.6775 58.5275 11.735 58.8225 11.735Z" fill="#00568E"/>
<path d="M62.9789 12.5L61.5164 7.49746H62.6264L63.6615 11.57H63.4739L64.6664 7.49746H65.4914L66.714 11.6225H66.4965L67.5314 7.49746H68.6415L67.1789 12.5H66.1665L64.9814 8.65996H65.1915L63.9914 12.5H62.9789Z" fill="#00568E"/>
<path d="M69.3914 12.5V7.49746H70.3064L73.0365 11.225L72.744 11.825V7.49746H73.6965V12.5H72.8639L70.074 8.74996L70.3439 8.29246V12.5H69.3914Z" fill="#00568E"/>
<path d="M74.8187 12.5V7.49746H75.8462V11.6675H78.1262V12.5H74.8187Z" fill="#00568E"/>
<path d="M81.0954 12.59C80.6004 12.59 80.1729 12.4975 79.8129 12.3125C79.4579 12.1225 79.1854 11.8375 78.9954 11.4575C78.8054 11.0725 78.7104 10.5875 78.7104 10.0025C78.7104 9.14746 78.9154 8.50246 79.3254 8.06746C79.7404 7.62746 80.3304 7.40746 81.0954 7.40746C81.5904 7.40746 82.0154 7.50246 82.3704 7.69246C82.7304 7.87746 83.0054 8.16246 83.1954 8.54746C83.3854 8.92746 83.4804 9.40996 83.4804 9.99496C83.4804 10.85 83.2729 11.4975 82.8579 11.9375C82.4479 12.3725 81.8604 12.59 81.0954 12.59ZM81.0954 11.735C81.3904 11.735 81.6354 11.6775 81.8304 11.5625C82.0304 11.4475 82.1804 11.2625 82.2804 11.0075C82.3804 10.7475 82.4304 10.41 82.4304 9.99496C82.4304 9.57496 82.3804 9.23996 82.2804 8.98996C82.1804 8.73496 82.0304 8.54996 81.8304 8.43496C81.6354 8.31996 81.3904 8.26246 81.0954 8.26246C80.8004 8.26246 80.5529 8.32246 80.3529 8.44246C80.1579 8.55746 80.0104 8.74246 79.9104 8.99746C79.8104 9.24746 79.7604 9.58246 79.7604 10.0025C79.7604 10.4225 79.8104 10.76 79.9104 11.015C80.0104 11.265 80.1579 11.4475 80.3529 11.5625C80.5529 11.6775 80.8004 11.735 81.0954 11.735Z" fill="#00568E"/>
<path d="M83.8316 12.5L85.7516 7.49746H86.8541L88.6916 12.5H87.6341L85.9991 7.84246L86.4491 7.79746L84.8216 12.5H83.8316ZM84.8441 11.2775L85.0916 10.4975H87.4166L87.5066 11.2775H84.8441Z" fill="#00568E"/>
<path d="M89.3646 12.5V7.49746H91.2471C92.0771 7.49746 92.6896 7.70746 93.0846 8.12746C93.4846 8.54746 93.6846 9.16996 93.6846 9.99496C93.6846 10.82 93.4846 11.445 93.0846 11.87C92.6896 12.29 92.0771 12.5 91.2471 12.5H89.3646ZM90.3846 11.6825H91.1346C91.6396 11.6825 92.0171 11.5475 92.2671 11.2775C92.5171 11.0075 92.6421 10.58 92.6421 9.99496C92.6421 9.40996 92.5171 8.98246 92.2671 8.71246C92.0171 8.44246 91.6396 8.30746 91.1346 8.30746H90.3846V11.6825Z" fill="#00568E"/>
<path d="M96.7108 12.5V7.49746H100.063V8.31496H97.7383V9.58246H99.7633V10.4075H97.7308V11.6825H100.063V12.5H96.7108Z" fill="#00568E"/>
<path d="M101.135 12.5V7.49746H102.185L103.94 10.0175L103.37 10.055L105.2 7.49746H106.227V12.5H105.207V8.30746L105.44 8.57746L103.632 11.03L101.877 8.56996L102.117 8.35996V12.5H101.135Z" fill="#00568E"/>
</g>
<defs>
<clipPath id="clip0">
<rect width="150" height="40" fill="white"/>
</clipPath>
</defs>
</svg>
