<svg width="22" height="22" viewBox="0 0 22 22" fill="none" xmlns="http://www.w3.org/2000/svg">
<path d="M16.874 3.806C16.6129 3.806 16.3577 3.88342 16.1406 4.02846C15.9236 4.1735 15.7544 4.37966 15.6545 4.62086C15.5546 4.86206 15.5284 5.12746 15.5794 5.38352C15.6303 5.63957 15.756 5.87478 15.9406 6.05938C16.1252 6.24399 16.3604 6.3697 16.6165 6.42064C16.8725 6.47157 17.1379 6.44543 17.3791 6.34552C17.6203 6.24561 17.8265 6.07643 17.9715 5.85935C18.1166 5.64228 18.194 5.38707 18.194 5.126C18.194 4.77591 18.0549 4.44017 17.8074 4.19262C17.5598 3.94507 17.2241 3.806 16.874 3.806ZM21.934 6.468C21.9126 5.55533 21.7417 4.65234 21.428 3.795C21.1483 3.06145 20.713 2.39721 20.152 1.848C19.6073 1.28417 18.9415 0.851594 18.205 0.583C17.3499 0.259777 16.4459 0.084931 15.532 0.0659999C14.366 -6.14673e-08 13.992 0 11 0C8.008 0 7.634 -6.14673e-08 6.468 0.0659999C5.55407 0.084931 4.65008 0.259777 3.795 0.583C3.05984 0.854313 2.39463 1.28652 1.848 1.848C1.28417 2.3927 0.851594 3.05848 0.583 3.795C0.259777 4.65008 0.084931 5.55407 0.0659999 6.468C-6.14673e-08 7.634 0 8.008 0 11C0 13.992 -6.14673e-08 14.366 0.0659999 15.532C0.084931 16.4459 0.259777 17.3499 0.583 18.205C0.851594 18.9415 1.28417 19.6073 1.848 20.152C2.39463 20.7135 3.05984 21.1457 3.795 21.417C4.65008 21.7402 5.55407 21.9151 6.468 21.934C7.634 22 8.008 22 11 22C13.992 22 14.366 22 15.532 21.934C16.4459 21.9151 17.3499 21.7402 18.205 21.417C18.9415 21.1484 19.6073 20.7158 20.152 20.152C20.7155 19.6048 21.1512 18.94 21.428 18.205C21.7417 17.3477 21.9126 16.4447 21.934 15.532C21.934 14.366 22 13.992 22 11C22 8.008 22 7.634 21.934 6.468ZM19.954 15.4C19.946 16.0982 19.8195 16.7901 19.58 17.446C19.4044 17.9247 19.1223 18.3573 18.755 18.711C18.3982 19.0746 17.9665 19.3561 17.49 19.536C16.8341 19.7755 16.1423 19.902 15.444 19.91C14.344 19.965 13.937 19.976 11.044 19.976C8.151 19.976 7.744 19.976 6.644 19.91C5.91898 19.9236 5.19705 19.8119 4.51 19.58C4.05436 19.3909 3.64249 19.1101 3.3 18.755C2.9349 18.4016 2.65633 17.9687 2.486 17.49C2.21744 16.8247 2.06849 16.1171 2.046 15.4C2.046 14.3 1.98 13.893 1.98 11C1.98 8.107 1.98 7.7 2.046 6.6C2.05093 5.88616 2.18125 5.17874 2.431 4.51C2.62465 4.0457 2.92189 3.63182 3.3 3.3C3.63419 2.92179 4.04722 2.62141 4.51 2.42C5.18051 2.17805 5.8872 2.05159 6.6 2.046C7.7 2.046 8.107 1.98 11 1.98C13.893 1.98 14.3 1.98 15.4 2.046C16.0982 2.05401 16.7901 2.18047 17.446 2.42C17.9459 2.60552 18.3945 2.90713 18.755 3.3C19.1155 3.6379 19.3971 4.05101 19.58 4.51C19.8245 5.17983 19.951 5.88696 19.954 6.6C20.009 7.7 20.02 8.107 20.02 11C20.02 13.893 20.009 14.3 19.954 15.4ZM11 5.357C9.88439 5.35917 8.79446 5.69198 7.86792 6.31336C6.94138 6.93474 6.21982 7.81682 5.7944 8.84813C5.36898 9.87944 5.2588 11.0137 5.47777 12.1076C5.69675 13.2015 6.23506 14.206 7.02468 14.9941C7.81431 15.7822 8.81981 16.3185 9.91415 16.5354C11.0085 16.7522 12.1425 16.6398 13.173 16.2124C14.2035 15.785 15.0842 15.0617 15.7037 14.1339C16.3233 13.2062 16.654 12.1156 16.654 11C16.6555 10.2576 16.5101 9.52227 16.2264 8.83625C15.9426 8.15024 15.526 7.52709 15.0006 7.00266C14.4751 6.47822 13.8511 6.06285 13.1646 5.78042C12.478 5.498 11.7424 5.3541 11 5.357ZM11 14.663C10.2755 14.663 9.56732 14.4482 8.96495 14.0457C8.36257 13.6432 7.89307 13.0711 7.61583 12.4018C7.33859 11.7324 7.26605 10.9959 7.40738 10.2854C7.54872 9.57483 7.89759 8.92215 8.40987 8.40987C8.92215 7.89759 9.57483 7.54872 10.2854 7.40738C10.9959 7.26605 11.7324 7.33859 12.4018 7.61583C13.0711 7.89307 13.6432 8.36257 14.0457 8.96495C14.4482 9.56732 14.663 10.2755 14.663 11C14.663 11.481 14.5683 11.9574 14.3842 12.4018C14.2001 12.8462 13.9303 13.25 13.5901 13.5901C13.25 13.9303 12.8462 14.2001 12.4018 14.3842C11.9574 14.5683 11.481 14.663 11 14.663Z" fill="#0563A1"/>
</svg>
