<svg width="29" height="20" viewBox="0 0 29 20" fill="none" xmlns="http://www.w3.org/2000/svg">
<path fill-rule="evenodd" clip-rule="evenodd" d="M19.8637 6.15063H24.0426C26.4115 6.15063 28.3388 8.09525 28.3388 10.4855C28.3388 12.8757 26.4115 14.8203 24.0426 14.8203H20.1709C20.3817 15.2332 20.5016 15.7011 20.5016 16.1967V18.3934C20.5016 18.8463 20.1374 19.2137 19.6886 19.2137H15.3344C14.8853 19.2137 14.5214 18.8463 14.5214 18.3934V14.8203H7.43938V16.1967C7.43938 17.8602 6.09793 19.2137 4.44928 19.2137H2.27218C1.82312 19.2137 1.45918 18.8463 1.45918 18.3934V14.8203H1.40138C0.952323 14.8203 0.588379 14.4531 0.588379 14C0.588379 13.5469 0.952323 13.1797 1.40138 13.1797H1.45939V9.60684V9.60022V9.59851V9.59552C1.46341 6.08035 3.34855 3.00183 6.15149 1.33044C6.17415 1.31378 6.19786 1.29819 6.22263 1.28366C6.24613 1.26999 6.27006 1.25781 6.29419 1.2467C7.67862 0.453735 9.27794 0 10.9804 0C12.6826 0 14.2815 0.453522 15.6657 1.24628C15.6903 1.25739 15.7144 1.26999 15.7381 1.28366C15.7629 1.29819 15.7868 1.314 15.8095 1.33066C17.6444 2.42484 19.0858 4.12228 19.8637 6.15063ZM3.08518 13.1797H6.62638H18.8756V10.4189H15.3344C15.0441 10.4189 14.7756 10.2625 14.6304 10.0087L12.6881 6.61401H9.27265L7.33034 10.0087C7.18511 10.2625 6.91686 10.4189 6.62638 10.4189H3.08518V13.1797ZM18.833 8.7782H15.8038L14.0963 5.79367L15.606 3.15521C17.3764 4.45126 18.5953 6.46957 18.833 8.7782ZM12.6881 4.97336L14.1987 2.33319C13.2152 1.88843 12.126 1.64062 10.9803 1.64062C9.83473 1.64062 8.74544 1.88843 7.76201 2.33319L9.27262 4.97336H12.6881ZM6.35475 3.15521L7.86451 5.79367L6.157 8.77798H3.12773C3.36528 6.46957 4.58436 4.45105 6.35475 3.15521ZM4.44928 17.5731C5.2013 17.5731 5.81338 16.9555 5.81338 16.1967V14.8203H3.08518V17.5731H4.44928ZM16.1474 14.8203H17.5115C18.2635 14.8203 18.8756 15.4377 18.8756 16.1967V17.5731H16.1474V14.8203ZM20.5016 13.1797H24.0426C25.5148 13.1797 26.7128 11.971 26.7128 10.4855C26.7128 8.99994 25.5148 7.79126 24.0426 7.79126H20.3303C20.4414 8.37573 20.5007 8.97879 20.5014 9.59552L20.5016 9.59851L20.5014 9.60022L20.5016 9.60684V13.1797Z" fill="#A7A7A7"/>
<path d="M24.0423 8.7865C23.8283 8.7865 23.6191 8.87387 23.4677 9.02661C23.3159 9.17957 23.2293 9.39084 23.2293 9.60681C23.2293 9.82278 23.3159 10.0345 23.4677 10.187C23.6191 10.3395 23.8287 10.4271 24.0423 10.4271C24.2564 10.4271 24.4662 10.3395 24.6173 10.187C24.7685 10.0345 24.8553 9.82278 24.8553 9.60681C24.8553 9.39084 24.7685 9.17957 24.6173 9.02661C24.4662 8.87387 24.2564 8.7865 24.0423 8.7865Z" fill="#A7A7A7"/>
</svg>
