<svg width="42" height="42" viewBox="0 0 42 42" fill="none" xmlns="http://www.w3.org/2000/svg">
<g clip-path="url(#clip0)">
<path d="M36.3329 32.5601C33.9811 25.8889 31.4785 18.5396 21 18.5396C16.3326 18.5396 12.8324 20.0086 10.2993 23.0308C8.1023 25.6522 6.91941 29.0076 5.66704 32.5601C4.19737 36.7407 7.80822 40.8327 12.0746 40.0131C15.6037 39.3344 20.4508 38.1909 27.3785 39.5233L29.9253 40.0131C34.1467 40.8247 37.815 36.7759 36.3329 32.5601ZM30.3902 37.5964C26.7879 36.9036 21.5605 35.6829 14.1567 37.1066L11.6099 37.5964C9.20455 38.0591 7.14902 35.7536 7.98803 33.3783C10.3294 26.7364 12.3516 21.0005 21 21.0005C29.6484 21.0005 31.6705 26.7365 34.012 33.3783C34.8519 35.7559 32.7925 38.059 30.3902 37.5964Z" fill="#0563A1"/>
<path d="M31.3311 12.8107C33.197 10.3231 33.1985 6.39934 31.3311 3.90953C29.3029 1.20529 25.8215 1.20594 23.7939 3.90953C21.928 6.39721 21.9264 10.3209 23.7939 12.8107C25.822 15.515 29.3034 15.5143 31.3311 12.8107ZM27.5625 4.3406C29.0299 4.3406 30.2695 6.1813 30.2695 8.36013C30.2695 10.539 29.0299 12.3797 27.5625 12.3797C26.0951 12.3797 24.8555 10.539 24.8555 8.36013C24.8555 6.1813 26.0951 4.3406 27.5625 4.3406Z" fill="#0563A1"/>
<path d="M18.2061 12.8107C20.072 10.3231 20.0736 6.39934 18.2061 3.90953C16.178 1.20529 12.6966 1.20594 10.6689 3.90953C8.80303 6.39721 8.80148 10.3209 10.6689 12.8107C12.6971 15.515 16.1785 15.5143 18.2061 12.8107ZM14.4375 4.3406C15.9049 4.3406 17.1445 6.1813 17.1445 8.36013C17.1445 10.539 15.9049 12.3797 14.4375 12.3797C12.9701 12.3797 11.7305 10.539 11.7305 8.36013C11.7305 6.1813 12.9701 4.3406 14.4375 4.3406Z" fill="#0563A1"/>
<path d="M9.02344 16.8914C9.02344 14.4036 6.99948 12.3796 4.51172 12.3796C2.02396 12.3796 0 14.4036 0 16.8914C0 19.3791 2.02396 21.4031 4.51172 21.4031C6.99948 21.4031 9.02344 19.3791 9.02344 16.8914ZM4.51172 18.9421C3.38092 18.9421 2.46094 18.0222 2.46094 16.8914C2.46094 15.7606 3.38092 14.8406 4.51172 14.8406C5.64252 14.8406 6.5625 15.7606 6.5625 16.8914C6.5625 18.0222 5.64252 18.9421 4.51172 18.9421Z" fill="#0563A1"/>
<path d="M37.5117 12C35.024 12 33 14.024 33 16.5117C33 18.9995 35.024 21.0234 37.5117 21.0234C39.9995 21.0234 42.0234 18.9995 42.0234 16.5117C42.0234 14.024 39.9995 12 37.5117 12ZM37.5117 18.5625C36.3809 18.5625 35.4609 17.6425 35.4609 16.5117C35.4609 15.3809 36.3809 14.4609 37.5117 14.4609C38.6425 14.4609 39.5625 15.3809 39.5625 16.5117C39.5625 17.6425 38.6425 18.5625 37.5117 18.5625Z" fill="#0563A1"/>
</g>
<defs>
<clipPath id="clip0">
<rect width="42" height="42" fill="white"/>
</clipPath>
</defs>
</svg>
