<svg width="26" height="18" viewBox="0 0 26 18" fill="none" xmlns="http://www.w3.org/2000/svg">
<path d="M25.1 6.48098C25.1544 4.9065 24.8101 3.3438 24.099 1.93798C23.6166 1.36114 22.947 0.971864 22.207 0.837982C19.1463 0.56026 16.0729 0.446431 13 0.496982C9.93833 0.444137 6.876 0.554293 3.82602 0.826983C3.22302 0.936671 2.66499 1.21951 2.22002 1.64098C1.23002 2.55398 1.12002 4.11598 1.01002 5.43598C0.850421 7.8093 0.850421 10.1907 1.01002 12.564C1.04184 13.3069 1.15246 14.0444 1.34002 14.764C1.47265 15.3196 1.74099 15.8336 2.12102 16.26C2.56901 16.7038 3.14004 17.0027 3.76002 17.118C6.13152 17.4107 8.52106 17.532 10.91 17.481C14.76 17.536 18.137 17.481 22.13 17.173C22.7652 17.0648 23.3523 16.7655 23.813 16.315C24.121 16.0069 24.351 15.6298 24.484 15.215C24.8774 14.0079 25.0706 12.7445 25.056 11.475C25.1 10.859 25.1 7.14098 25.1 6.48098ZM10.514 12.135V5.32598L17.026 8.74698C15.2 9.75898 12.791 10.903 10.514 12.135Z" fill="#0C6D9C"/>
</svg>
